<svg xmlns="http://www.w3.org/2000/svg" xmlns:xlink="http://www.w3.org/1999/xlink" preserveAspectRatio="xMidYMid" width="100" height="30" viewBox="0 0 100 30">
<g id="logo-savvysvg">
<path d="M99.876,1.412 C99.876,1.412 90.366,15.250 90.366,15.250 C90.366,15.250 90.366,28.804 90.366,28.804 C90.366,29.220 89.995,29.594 89.583,29.594 C89.583,29.594 85.795,29.594 85.795,29.594 C85.342,29.594 85.013,29.220 85.013,28.804 C85.013,28.804 85.013,15.292 85.013,15.292 C85.013,15.292 78.721,5.989 78.721,5.989 C78.721,5.989 68.104,29.254 68.104,29.254 C67.980,29.503 67.774,29.711 67.404,29.711 C67.404,29.711 66.992,29.711 66.992,29.711 C66.621,29.711 66.416,29.503 66.292,29.254 C66.292,29.254 56.173,7.011 56.173,7.011 C56.173,7.011 46.022,29.254 46.022,29.254 C45.898,29.503 45.693,29.711 45.322,29.711 C45.322,29.711 45.135,29.711 45.135,29.711 C45.135,29.711 44.910,29.711 44.910,29.711 C44.910,29.711 40.935,29.711 40.935,29.711 C40.565,29.711 40.318,29.462 40.235,29.254 C40.235,29.254 32.330,11.385 32.330,11.385 C32.330,11.385 32.042,11.385 32.042,11.385 C32.042,11.385 28.366,19.693 28.366,19.693 C28.366,19.693 31.673,19.693 31.673,19.693 C31.673,19.693 33.738,24.358 33.738,24.358 C33.738,24.358 26.302,24.358 26.302,24.358 C26.302,24.358 24.136,29.254 24.136,29.254 C24.054,29.462 23.807,29.711 23.437,29.711 C23.437,29.711 19.237,29.711 19.237,29.711 C18.619,29.711 18.290,29.171 18.537,28.631 C18.537,28.631 31.301,0.664 31.301,0.664 C31.424,0.414 31.630,0.207 32.001,0.207 C32.001,0.207 32.412,0.207 32.412,0.207 C32.783,0.207 32.989,0.414 33.112,0.664 C33.112,0.664 43.301,23.061 43.301,23.061 C43.301,23.061 53.186,0.664 53.186,0.664 C53.268,0.456 53.516,0.207 53.886,0.207 C53.886,0.207 54.269,0.207 54.269,0.207 C54.269,0.207 58.086,0.207 58.086,0.207 C58.086,0.207 58.469,0.207 58.469,0.207 C58.840,0.207 59.087,0.456 59.169,0.664 C59.169,0.664 67.074,18.533 67.074,18.533 C67.074,18.533 67.363,18.533 67.363,18.533 C67.363,18.533 75.268,0.664 75.268,0.664 C75.350,0.456 75.597,0.207 75.968,0.207 C75.968,0.207 76.284,0.207 76.284,0.207 C76.284,0.207 80.167,0.207 80.167,0.207 C80.167,0.207 80.484,0.207 80.484,0.207 C80.813,0.207 81.019,0.414 81.143,0.581 C81.143,0.581 87.730,10.139 87.730,10.139 C87.730,10.139 94.318,0.581 94.318,0.581 C94.441,0.414 94.647,0.207 94.977,0.207 C94.977,0.207 99.218,0.207 99.218,0.207 C99.876,0.207 100.206,0.872 99.876,1.412 ZM18.924,21.691 C18.924,25.972 15.259,29.919 9.454,29.919 C4.266,29.919 1.219,27.467 0.396,26.678 C0.025,26.304 -0.180,26.096 0.190,25.431 C0.190,25.431 1.672,22.855 1.672,22.855 C2.002,22.273 2.702,22.273 3.072,22.564 C3.278,22.688 6.613,25.140 9.289,25.140 C11.430,25.140 13.036,23.728 13.036,21.940 C13.036,19.821 11.266,18.366 7.807,16.954 C3.937,15.375 0.067,12.881 0.067,7.978 C0.067,4.279 2.784,-0.001 9.331,-0.001 C13.530,-0.001 16.742,2.160 17.565,2.783 C17.977,3.033 18.101,3.739 17.812,4.155 C17.812,4.155 16.248,6.523 16.248,6.523 C15.918,7.022 15.301,7.354 14.807,7.022 C14.477,6.814 11.348,4.737 9.084,4.737 C6.737,4.737 5.460,6.316 5.460,7.645 C5.460,9.598 6.984,10.928 10.319,12.300 C14.313,13.920 18.924,16.330 18.924,21.691 Z" id="path-1" class="cls-3" fill-rule="evenodd"/>
</g>
</svg>