<svg xmlns="http://www.w3.org/2000/svg" xmlns:xlink="http://www.w3.org/1999/xlink" preserveAspectRatio="xMidYMid" width="51" height="8" viewBox="0 0 51 8">
<g id="logo-appssvg">
<path d="M50.319,1.688 C50.234,1.817 50.074,1.903 49.946,1.817 C49.861,1.763 49.051,1.225 48.464,1.225 C47.857,1.225 47.526,1.634 47.526,1.978 C47.526,2.484 47.921,2.829 48.784,3.184 C49.819,3.603 51.013,4.227 51.013,5.615 C51.013,6.723 50.064,7.746 48.561,7.746 C47.217,7.746 46.428,7.111 46.215,6.907 C46.119,6.810 46.066,6.756 46.162,6.584 C46.162,6.584 46.546,5.917 46.546,5.917 C46.631,5.766 46.812,5.766 46.908,5.841 C46.961,5.874 47.825,6.508 48.518,6.508 C49.072,6.508 49.488,6.143 49.488,5.680 C49.488,5.131 49.029,4.755 48.134,4.389 C47.132,3.980 46.130,3.334 46.130,2.065 C46.130,1.107 46.834,-0.001 48.528,-0.001 C49.616,-0.001 50.448,0.558 50.661,0.720 C50.767,0.784 50.799,0.967 50.725,1.075 C50.725,1.075 50.319,1.688 50.319,1.688 ZM34.262,4.905 C34.262,4.905 32.930,4.905 32.930,4.905 C32.930,4.905 32.930,7.433 32.930,7.433 C32.930,7.542 32.834,7.638 32.727,7.638 C32.727,7.638 31.746,7.638 31.746,7.638 C31.629,7.638 31.544,7.542 31.544,7.433 C31.544,7.433 31.544,0.311 31.544,0.311 C31.544,0.203 31.629,0.106 31.746,0.106 C31.746,0.106 34.252,0.106 34.252,0.106 C35.563,0.106 36.640,1.182 36.640,2.484 C36.640,3.818 35.563,4.905 34.262,4.905 ZM34.167,1.430 C34.167,1.430 32.930,1.430 32.930,1.430 C32.930,1.430 32.930,3.592 32.930,3.592 C32.930,3.592 34.167,3.592 34.167,3.592 C34.764,3.592 35.264,3.108 35.264,2.473 C35.264,1.882 34.764,1.430 34.167,1.430 ZM19.411,4.905 C19.411,4.905 18.079,4.905 18.079,4.905 C18.079,4.905 18.079,7.433 18.079,7.433 C18.079,7.542 17.983,7.638 17.876,7.638 C17.876,7.638 16.896,7.638 16.896,7.638 C16.778,7.638 16.693,7.542 16.693,7.433 C16.693,7.433 16.693,0.311 16.693,0.311 C16.693,0.203 16.778,0.106 16.896,0.106 C16.896,0.106 19.401,0.106 19.401,0.106 C20.712,0.106 21.789,1.182 21.789,2.484 C21.789,3.818 20.712,4.905 19.411,4.905 ZM19.316,1.430 C19.316,1.430 18.079,1.430 18.079,1.430 C18.079,1.430 18.079,3.592 18.079,3.592 C18.079,3.592 19.316,3.592 19.316,3.592 C19.913,3.592 20.414,3.108 20.414,2.473 C20.414,1.882 19.913,1.430 19.316,1.430 ZM5.968,7.638 C5.809,7.638 5.734,7.574 5.659,7.423 C5.659,7.423 5.137,6.261 5.137,6.261 C5.137,6.261 1.950,6.261 1.950,6.261 C1.950,6.261 1.427,7.423 1.427,7.423 C1.385,7.531 1.288,7.638 1.118,7.638 C1.118,7.638 0.191,7.638 0.191,7.638 C0.030,7.638 -0.055,7.498 0.009,7.359 C0.009,7.359 3.325,0.117 3.325,0.117 C3.357,0.052 3.410,-0.001 3.506,-0.001 C3.506,-0.001 3.612,-0.001 3.612,-0.001 C3.719,-0.001 3.762,0.052 3.794,0.117 C3.794,0.117 7.077,7.359 7.077,7.359 C7.141,7.498 7.056,7.638 6.896,7.638 C6.896,7.638 5.968,7.638 5.968,7.638 ZM3.548,2.699 C3.548,2.699 3.517,2.699 3.517,2.699 C3.517,2.699 2.472,5.066 2.472,5.066 C2.472,5.066 4.615,5.066 4.615,5.066 C4.615,5.066 3.548,2.699 3.548,2.699 Z" id="path-1" class="cls-3" fill-rule="evenodd"/>
</g>
</svg>